<mxfile host="app.diagrams.net" modified="2023-08-13T23:02:43.434Z" agent="Mozilla/5.0 (Windows NT 10.0; Win64; x64) AppleWebKit/537.36 (KHTML, like Gecko) Chrome/115.0.0.0 Safari/537.36 Edg/115.0.1901.200" version="21.6.5" etag="6Exh5AhUvBoJqjhXDJ1h" type="github">
  <diagram name="Page-1" id="qW1yIPbSFf3EGdja7BIf">
    <mxGraphModel>
      <root>
        <mxCell id="0" />
        <mxCell id="1" parent="0" />
      </root>
    </mxGraphModel>
  </diagram>
</mxfile>
